<?xml version="1.0" encoding="iso-8859-1"?>
<!-- Generator: Adobe Illustrator 19.0.0, SVG Export Plug-In . SVG Version: 6.00 Build 0)  -->
<svg version="1.1" id="Capa_1" xmlns="http://www.w3.org/2000/svg" xmlns:xlink="http://www.w3.org/1999/xlink" x="0px" y="0px"
	 viewBox="0 0 512 512" style="enable-background:new 0 0 512 512;" xml:space="preserve">
<g>
	<g>
		<path d="M511.952,166.479l-0.646-12.168l-99.027-15.309l-94.806-94.806l-98.429,98.429l21.229,21.229L0,404.132l63.672,63.671
			l240.276-240.276l9.905,9.905l15.308,99.027l12.168,0.645c0.241,0.014,1.017,0.048,2.275,0.048
			c11.622,0,64.282-2.965,114.857-53.54C514.513,227.558,512.083,168.947,511.952,166.479z M63.672,425.378l-21.246-21.246
			l219.063-219.064l21.247,21.247L63.672,425.378z M437.249,262.398c-32.638,32.638-65.372,41.529-82.393,43.912l-12.855-83.156
			l-80.528-80.528l56.003-56.004l80.528,80.528l83.139,12.854C478.739,197.023,469.824,229.822,437.249,262.398z"/>
	</g>
</g>
<g>
</g>
<g>
</g>
<g>
</g>
<g>
</g>
<g>
</g>
<g>
</g>
<g>
</g>
<g>
</g>
<g>
</g>
<g>
</g>
<g>
</g>
<g>
</g>
<g>
</g>
<g>
</g>
<g>
</g>
</svg>
