<svg id="Layer_1" enable-background="new 0 0 512.002 512.002" height="512" viewBox="0 0 512.002 512.002" width="512" xmlns="http://www.w3.org/2000/svg"><g><g><path d="m502.002 452.002h-11.002v-.001-120.001c0-.001 0-.002 0-.002h11.002c5.522 0 10-4.477 10-10s-4.478-10-10-10h-61.002v-301.998c0-5.523-4.478-10-10-10h-349.998c-5.522 0-10 4.477-10 10v301.997h-61.002c-5.522 0-10 4.477-10 10s4.478 10 10 10h11.002v.002 120.002.001h-11.002c-5.522 0-10 4.477-10 10v40c0 5.523 4.478 10 10 10h492.002c5.522 0 10-4.477 10-10v-40c0-5.523-4.478-10-10-10zm-31.002 0h-30v-.001-120.001c0-.001 0-.002 0-.002h30v.002zm-379.998-120.005h29.991.009v.002 120.002.001h-30v-.001-120.001c0-.001 0-.002 0-.003zm50 0h29.999v.002 120.002.001h-29.999v-.001-120.001c0-.001 0-.002 0-.003zm49.999 0h30v.002 120.002.001h-30v-.001-120.001c0-.001 0-.002 0-.003zm50.13-79.22-32.431-24.062 12.547-16.911 4.189 2.89c2.256 1.556 5.054 2.119 7.731 1.556 2.682-.562 5.015-2.2 6.455-4.53 2.527-4.089 5.989-7.476 10.026-9.943 8.839 9.582 21.489 15.598 35.523 15.598 14.041 0 26.698-6.022 35.537-15.614 8.841 5.377 14.463 15.013 14.463 25.614v50c0 12.892-5.09 25.312-14.054 34.621h-75.945v-51.189c0-3.164-1.499-6.143-4.041-8.03zm-39.98-54.839 3.624 2.501-12.137 16.359-11.176-8.292c-.092-.068-.185-.134-.278-.199-2.723-1.88-4.35-4.94-4.353-8.177v-78.6c0-5.514 4.486-10 10-10s10 4.486 10 10v68.177c0 3.287 1.615 6.364 4.32 8.231zm112.358-28.9c0 15.625-12.712 28.338-28.338 28.338s-28.339-12.712-28.339-28.338v-19.17c0-15.625 12.713-28.338 28.339-28.338s28.338 12.712 28.338 28.338zm-72.508 162.959h30v.002 120.002.001h-30v-.001-120.001c0-.001 0-.002 0-.003zm50 0h30v.002 120.002.001h-30v-.001-120.001c0-.001 0-.002 0-.003zm50 0h29.999v.002 120.002.001h-29.999v-.001-120.001c0-.001 0-.002 0-.003zm49.999 0h.009 29.991v.002 120.002.001h-30v-.001-120.001c0-.001 0-.002 0-.003zm-299.998-311.997h329.998v291.997h-20.001v-261.996c0-5.523-4.478-10-10-10h-90.002c-5.522 0-10 4.477-10 10s4.478 10 10 10h80.002v251.996h-35.073c5.986-10.468 9.245-22.39 9.245-34.621v-50c0-17.746-9.418-33.883-24.234-42.813 1.659-4.877 2.572-10.095 2.572-15.525v-19.17c0-26.654-21.685-48.338-48.338-48.338-26.654 0-48.339 21.684-48.339 48.338v19.17c0 5.44.917 10.668 2.582 15.552-3.799 2.299-7.297 5.077-10.371 8.295l-12.212-8.427v-62.928c0-16.542-13.458-30-30-30s-30 13.458-30 30v78.609c.009 9.749 4.804 18.901 12.837 24.52l55.504 41.182v46.157h-94.169v-251.997h79.994c5.522 0 10-4.477 10-10s-4.478-10-10-10h-89.994c-5.522 0-10 4.477-10 10v261.996h-20.001zm-50 311.997h30v.002 120.002.001h-30v-.001-120.001c0-.001 0-.002 0-.003zm451 160.005h-472.002v-20h472.002z"/><path d="m256.001 60.001c5.522 0 10-4.477 10-10s-4.478-10-10-10h-.008c-5.522 0-9.996 4.477-9.996 10s4.482 10 10.004 10z"/></g></g></svg>