<svg id="Layer_1" enable-background="new 0 0 512 512" height="512" viewBox="0 0 512 512" width="512" xmlns="http://www.w3.org/2000/svg"><g><path d="m312.8 80.2c2.7 6.8 8.7 24.1 6.7 38.7l17.7 2.8c-1.6-12-10-26.5-14-32.3-.7-1-1.1-2.2-1.1-3.5v-11.5c-2.8-4.9-4.7-10.3-5.7-15.9.2 2.5.7 4.9 1.3 7.3.5 1.5.4 3.1-.3 4.5z"/><path d="m44.1 304.2c-1.2-.1-2.5-.1-3.8-.2-5-.3-13.1-.8-16.5.2-3 4.1-6.7 10.5-6.8 13.8 1 2.1 5.9 6.2 10.3 9.6l14.5-10.4z"/><path d="m119.1 369.7c4.6-1 9.4-2 11.7-3.1 19.7-9.3 57.2-22.7 69.9-27 55.4-19 101.5-85.3 114.1-138.5 3.4-14.4 7.3-27.8 20.9-67.4l-20.1-3.2c-.2.3-.3.6-.5.9-18 26.5-24.7 40.2-30.2 51.2-1.6 3.3-3.2 6.5-4.9 9.6-28.5 52.6-105.2 98.8-152.2 103.5-2.7.3-5.8.6-9.1.9-19.3 1.9-48.2 4.6-62.3 7.2l-2.2 12.5c6 1.5 16.5 4 27.8 5.8 3.2.6 5.4 3.6 4.9 6.8-.5 3.3-3.6 5.5-6.8 5-13.9-2.3-26.2-5.3-31.5-6.7l-11.2 8c.2.2.5.4.7.5 24.9 19.9 54.5 31.4 74.5 35.6 2.1-.6 4.3-1.1 6.5-1.6z"/><path d="m334.2 72.9v11.3c3.3 5.2 6.3 10.5 8.9 16.1 4.1 9 6.2 16.9 6.4 23.9l8.9 2.9 8.4-6.2c-1.4-1.8-2.8-3.6-4.1-5.6-7.3-11-11-23.4-11.3-37.9 0-2.1.1-4.1.3-6.2.5-6.3.9-11.8-5.5-19.1-6.5-2.8-13.8-4.7-16.7-4.6-4.2 9.6 3.7 22 3.8 22.1.5.9.9 2.1.9 3.3z"/><path d="m395.6 113.7 4.2-8.6c-11.5-5.1-23.2-13.8-32.5-30.8-.9-1.8-1.8-3.6-2.5-5.5-.3-.8-.6-1.5-1-2.3 0 2-.2 3.9-.3 5.7s-.3 3.5-.2 5c.5 18 6.9 29.7 14.6 38.5z"/><path d="m130.5 379.4c-2.6.7-5.6 1.4-8.9 2.1-2.1.4-4.5 1-6.8 1.5-.4.1-.8.2-1.2.3-3.6.9-7 2-8.8 3.1-1.9 4.9-3.9 12.5-3.1 15.8 2.3 3 15.6 8 20.8 10l13.6-22.1z"/><path d="m302.8 437.9c-3.9 3.2-10.2 8.2-12 11.2.5 5 2.1 12.3 4.2 14.8 2.2 1 9.1.6 14.7.1l7.6-19.8-8.8-11c-1.7 1.5-3.6 3.1-5.7 4.7z"/><path d="m494.9 226.2c-.6-32.3-24.8-91.3-61.3-110.4-3.1-1.6-7.6-2.7-12.8-4-3-.8-6.3-1.6-9.7-2.6l-.9 1.8c26.2 6.7 39.9 28.3 50.7 51.1v.1c1.4 3 .1 6.6-2.9 8s-6.6.1-8-2.9c-15.4-32.3-29.5-42.2-45.4-45.2-.9 1.8-2.7 3-4.7 3.2l-11 1.2c.5.4.9.8 1.4 1.2 4.6 4 8.9 7.7 11.8 11.8 27.7 39.1 19.8 110.3 8.3 145.9-13.5 41.7-34.2 75.1-62.7 100.6-5.5 7.4-11.9 15-18.2 22.4-4.7 5.5-9.1 10.8-13.1 15.8l12.2 15.3c1.3 1.7 1.7 3.9.9 5.9l-6.7 17.4c52.4-3.5 82.9-31.7 93-41 37.3-34.4 81.1-96.2 79.1-195.6z"/><path d="m399.2 281.7c11.6-35.9 17.2-101.6-6.7-135.3-2.1-2.9-5.7-6.1-9.9-9.7-2.4-2.1-5.1-4.4-7.7-7l-11.9 8.9c-1.6 1.2-3.6 1.5-5.4.9l-10-3.3c-13.8 40.2-17.7 53.4-21.1 67.6-6.9 29.2-23 61.2-44.2 87.9-23 28.9-50.6 49.9-77.7 59.3-11.4 3.9-42.9 15.1-62.9 23.9l5 9.3c8.5-.4 17-1.5 25.4-3.2 3.2-.7 6.4 1.5 7.1 4.7s-1.5 6.4-4.7 7.1c-9.2 1.9-18.6 3-28 3.4l-12.5 20.2c46.8 16.3 96.8 13.3 118.2 7.1 34.4-9.8 62.3-24.3 85.2-44.2 27.9-24.2 48.7-57 61.8-97.6z"/></g></svg>