<?xml version="1.0"?>
<svg xmlns="http://www.w3.org/2000/svg" id="Layer_1" data-name="Layer 1" viewBox="0 0 512 512" width="512" height="512"><path d="M494.5,199H297v-5a6,6,0,0,0-6-6H263a6,6,0,0,0-6,6v5H217.466A69.71,69.71,0,0,0,176,185.5H81.5a6,6,0,0,0-6,6V199h-58a6,6,0,0,0-6,6V307a6,6,0,0,0,6,6h58v7.5a6,6,0,0,0,6,6H176A69.7,69.7,0,0,0,217.467,313H257v5a6,6,0,0,0,6,6h28a6,6,0,0,0,6-6v-5H494.5a6,6,0,0,0,6-6V205A6,6,0,0,0,494.5,199ZM75.5,301h-52V211h52v30H71a15.5,15.5,0,0,0,0,31h4.5ZM71,260a3.5,3.5,0,1,1,0-7h87v7Zm93-19H114.5V219.5H170a36.5,36.5,0,0,1,0,73H114.5V272H164a6,6,0,0,0,6-6V247A6,6,0,0,0,164,241Zm53.367,56.367a57.209,57.209,0,0,1-5.566,4.894A57.858,57.858,0,0,1,176,314.5H87.5V272h15v26.5a6,6,0,0,0,6,6H170a48.5,48.5,0,0,0,0-97H108.5a6,6,0,0,0-6,6V241h-15V197.5H176a58.5,58.5,0,0,1,41.367,99.867ZM257,301H230.269a70.535,70.535,0,0,0,.023-90H257Zm48.5,0H297V243.333a6,6,0,1,0-12,0V312H269V200h16v19.333a6,6,0,0,0,12,0V211h8.5a45,45,0,0,1,0,90Zm183,0H340.472a57.753,57.753,0,0,0,5.329-4.695,56.942,56.942,0,0,0-5.378-85.3H488.5Z"/><path d="M393.75,271.75A15.75,15.75,0,1,0,378,256,15.767,15.767,0,0,0,393.75,271.75Zm0-19.5A3.75,3.75,0,1,1,390,256,3.754,3.754,0,0,1,393.75,252.25Z"/><path d="M453.75,271.75A15.75,15.75,0,1,0,438,256,15.767,15.767,0,0,0,453.75,271.75Zm0-19.5A3.75,3.75,0,1,1,450,256,3.754,3.754,0,0,1,453.75,252.25Z"/></svg>
