<svg id="Layer_1" enable-background="new 0 0 512 512" height="512" viewBox="0 0 512 512" width="512" xmlns="http://www.w3.org/2000/svg"><g><path d="m176 196.5h-89.5v45.5h17v-28.5c0-2.8 2.2-5 5-5h61.5c26.2 0 47.5 21.3 47.5 47.5s-21.3 47.5-47.5 47.5h-61.5c-2.8 0-5-2.2-5-5v-27.5h-17v44.5h89.5c32.9 0 59.5-26.6 59.5-59.5s-26.6-59.5-59.5-59.5z"/><path d="m245.5 256c0 17-6.2 33.3-17.5 46h30v-92h-30c11.3 12.7 17.5 29 17.5 46z"/><path d="m268 199h18v114h-18z"/><path d="m164 271h-50.5v22.5h56.5c20.7 0 37.5-16.8 37.5-37.5s-16.8-37.5-37.5-37.5h-56.5v23.5h50.5c2.8 0 5 2.2 5 5v19c0 2.8-2.2 5-5 5z"/><path d="m66.5 256.5c0 2.5 2 4.5 4.5 4.5h88v-9h-88c-2.5 0-4.5 2-4.5 4.5z"/><circle cx="453.8" cy="256" r="4.8"/><path d="m56.5 256.5c0-8 6.5-14.5 14.5-14.5h5.5v-32h-54v92h54v-31h-5.5c-8 0-14.5-6.5-14.5-14.5z"/><path d="m337.4 210c15.1 10.4 24.1 27.6 24.1 46s-9 35.6-24.1 46h152.1v-92zm56.4 60.8c-8.1 0-14.8-6.6-14.8-14.8 0-8.1 6.6-14.7 14.8-14.8 8.1 0 14.8 6.6 14.8 14.8s-6.7 14.8-14.8 14.8zm60 0c-8.1 0-14.8-6.6-14.8-14.8 0-8.1 6.6-14.7 14.8-14.8 8.1 0 14.8 6.6 14.8 14.8s-6.7 14.8-14.8 14.8z"/><path d="m351.5 256c0-25.4-20.6-46-46-46h-9.5v92h9.5c25.4 0 46-20.6 46-46z"/><circle cx="393.8" cy="256" r="4.8"/></g></svg>