<svg height="439pt" viewBox="0 -11 439.76 439" width="439pt" xmlns="http://www.w3.org/2000/svg"><path d="m219.878906 48.378906c-23.414062-.027344-43.398437-16.917968-47.335937-40h-77.917969l-94.625 94.632813 45.257812 45.25 40.964844-40.96875c2.289063-2.289063 5.730469-2.972657 8.71875-1.734375 2.988282 1.238281 4.9375 4.152344 4.9375 7.390625v303.429687h240v-303.429687c0-3.238281 1.949219-6.152344 4.941406-7.390625 2.988282-1.238282 6.425782-.554688 8.714844 1.734375l40.96875 40.96875 45.257813-45.25-94.625-94.632813h-77.921875c-3.933594 23.082032-23.921875 39.972656-47.335938 40zm0 0"/><path d="m219.878906 32.378906c17.675782 0 32-14.324218 32-32h-64c0 17.675782 14.328125 32 32 32zm0 0"/></svg>