<svg id="Capa_1" enable-background="new 0 0 509.041 509.041" height="512" viewBox="0 0 509.041 509.041" width="512" xmlns="http://www.w3.org/2000/svg"><g id="XMLID_43_"><path id="XMLID_54_" d="m311.612 187.818c-1.566-7.277-2.359-14.735-2.359-22.328 0-56.837 45.121-103.325 101.423-105.546l.059-.091h-312.942l.059.091c56.302 2.221 101.423 48.709 101.423 105.546 0 7.593-.793 15.051-2.359 22.328 25.039 4.725 44.043 26.749 44.043 53.141 0 .661-.026 1.315-.05 1.97h26.71c-.024-.655-.05-1.309-.05-1.97 0-26.392 19.004-48.416 44.043-53.141zm-82.097-68.276h49.499v30h-49.499z"/><path id="XMLID_58_" d="m136.979 261.853c-13.506 6.095-28.175 9.275-43.341 9.275-40.632 0-75.973-23.062-93.638-56.781v168.738c0 36.45 29.654 66.104 66.104 66.104 25.041 0 48.341-14.53 59.36-37.016l57.472-117.282c-20.724-1.497-38.251-14.707-45.957-33.038z"/><path id="XMLID_59_" d="m414.891 271.127c-15.169 0-29.837-3.18-43.341-9.274-7.645 18.186-24.955 31.331-45.464 33.001l57.49 117.32c11.021 22.486 34.32 37.016 59.36 37.016 36.45 0 66.104-29.654 66.104-66.104v-169.72c-17.488 34.253-53.124 57.761-94.149 57.761z"/><path id="XMLID_62_" d="m134.022 229.447c3.671-16.864 15.227-30.807 30.6-37.774 3.086-8.346 4.654-17.126 4.654-26.183 0-41.707-33.931-75.638-75.638-75.638s-75.638 33.931-75.638 75.638 33.931 75.638 75.638 75.638c14.476-.001 28.318-4.029 40.384-11.681zm-80.756-78.957h25.372v-25.372h30v25.372h25.372v30h-25.372v25.372h-30v-25.372h-25.372z"/><path id="XMLID_67_" d="m374.507 229.446c12.064 7.652 25.905 11.682 40.384 11.682 41.707 0 75.638-33.931 75.638-75.638s-33.931-75.638-75.638-75.638-75.638 33.931-75.638 75.638c0 9.056 1.567 17.837 4.654 26.183 15.373 6.967 26.929 20.909 30.6 37.773zm74.989-75.156c8.409 0 14.636 6.873 15 15 .363 8.101-7.154 15-15 15-8.409 0-14.636-6.873-15-15-.362-8.1 7.154-15 15-15zm-37.824-36.557c8.409 0 14.636 6.873 15 15 .363 8.101-7.154 15-15 15-8.409 0-14.636-6.873-15-15-.363-8.101 7.153-15 15-15zm0 73.477c8.409 0 14.636 6.873 15 15 .363 8.101-7.154 15-15 15-8.409 0-14.636-6.873-15-15-.363-8.101 7.153-15 15-15zm-37.825-6.92c-8.409 0-14.636-6.873-15-15-.363-8.101 7.154-15 15-15 8.409 0 14.636 6.873 15 15 .363 8.101-7.154 15-15 15z"/><path id="XMLID_381_" d="m186.868 216.867c-13.284 0-24.092 10.807-24.092 24.091s10.808 24.092 24.092 24.092 24.091-10.808 24.091-24.092-10.807-24.091-24.091-24.091z"/><path id="XMLID_390_" d="m321.661 265.05c13.284 0 24.091-10.808 24.091-24.092s-10.807-24.091-24.091-24.091-24.092 10.807-24.092 24.091 10.808 24.092 24.092 24.092z"/></g></svg>