<svg id="Layer_1_1_" enable-background="new 0 0 64 64" height="512" viewBox="0 0 64 64" width="512" xmlns="http://www.w3.org/2000/svg"><path d="m15 56.336 8.435-11.116c.446.172.896.331 1.348.475l-5.649 9.805c-.088.153-.134.325-.134.5v6h2v-5.732l5.784-10.04c.549.123 1.1.227 1.653.311l-3.374 9.114c-.042.111-.063.228-.063.347v6h2v-5.821l3.484-9.411c.172.011.344.011.516.018v15.214h2v-15.213c.172-.007.344-.008.516-.019l3.484 9.411v5.821h2v-6c0-.119-.021-.236-.063-.347l-3.375-9.115c.556-.084 1.11-.189 1.661-.313l5.777 10.042v5.733h2v-6c0-.175-.046-.347-.133-.499l-5.642-9.809c.45-.143.896-.302 1.339-.472l8.436 11.116v5.664h2v-6c0-.218-.071-.431-.203-.604l-8.346-11c.344-.167.689-.335 1.027-.519.308-.168.505-.484.521-.833.016-.35-.153-.682-.444-.876l-5.555-3.703v-3.465c0-1.103-.897-2-2-2v-27c0-2.206-1.794-4-4-4s-4 1.794-4 4v27c-1.103 0-2 .897-2 2v3.465l-5.555 3.703c-.291.194-.46.526-.444.876s.213.666.521.833c.338.185.683.352 1.027.519l-8.345 10.998c-.133.175-.204.388-.204.606v6h2zm15-50.336c0-1.103.897-2 2-2s2 .897 2 2v27h-4zm-2.445 33.832c.278-.186.445-.498.445-.832v-4h8v4c0 .334.167.646.445.832l4.563 3.041c-.157.071-.316.132-.474.199-.009.003-.018.003-.027.006-5.405 2.273-11.607 2.274-17.015.001-.01-.004-.02-.003-.03-.007-.157-.066-.316-.127-.471-.198z"/></svg>