<svg id="Capa_1" enable-background="new 0 0 512 512" height="512" viewBox="0 0 512 512" width="512" xmlns="http://www.w3.org/2000/svg"><g><path d="m159.451 305.658c-4.142 0-7.5 3.358-7.5 7.5v19.666c0 4.142 3.358 7.5 7.5 7.5s7.5-3.358 7.5-7.5v-19.666c0-4.142-3.358-7.5-7.5-7.5z"/><path d="m166.951 207.636 108.416-62.594c3.587-2.071 4.816-6.658 2.745-10.245-2.07-3.587-6.659-4.816-10.245-2.745l-108.416 62.594-108.415-62.594c-3.587-2.072-8.174-.842-10.245 2.745s-.842 8.174 2.745 10.245l108.415 62.594v70.521c0 4.142 3.358 7.5 7.5 7.5s7.5-3.358 7.5-7.5z"/><path d="m335.147 243.214 42.891-24.763c3.587-2.071 4.816-6.658 2.745-10.245-2.07-3.587-6.66-4.816-10.245-2.745l-42.891 24.763c-3.587 2.071-4.816 6.658-2.745 10.245 2.081 3.604 6.676 4.807 10.245 2.745z"/><path d="m374.287 451.933c4.143 0 7.5-3.358 7.5-7.5v-106.658l92.369-53.33c3.587-2.071 4.816-6.658 2.745-10.245-2.071-3.588-6.66-4.816-10.245-2.745l-92.369 53.33-92.368-53.329c-3.589-2.072-8.176-.843-10.245 2.745-2.071 3.587-.842 8.174 2.745 10.245l92.368 53.329v106.658c0 4.142 3.358 7.5 7.5 7.5z"/><path d="m11.661 302.098 136.129 78.594c7.19 4.152 16.128 4.153 23.322 0l65.463-37.795v57.898c0 7.5 4.034 14.487 10.529 18.237l116.655 67.351c6.494 3.75 14.563 3.75 21.058 0l116.654-67.35c6.494-3.75 10.529-10.738 10.529-18.237v-50.627c0-4.142-3.357-7.5-7.5-7.5s-7.5 3.358-7.5 7.5v50.627c0 2.158-1.16 4.168-3.029 5.247l-116.654 67.351c-1.87 1.079-4.189 1.078-6.058 0l-116.655-67.351c-1.868-1.079-3.029-3.089-3.029-5.247 0-17.382 0-99.733 0-134.701 0-2.158 1.161-4.168 3.029-5.247 20.729-11.968 79.876-46.116 116.656-67.351 1.867-1.079 4.188-1.078 6.057 0l116.654 67.351c1.869 1.078 3.029 3.089 3.029 5.246v49.074c0 4.142 3.357 7.5 7.5 7.5s7.5-3.358 7.5-7.5v-49.074c0-7.5-4.035-14.488-10.529-18.237l-116.653-67.35c-6.495-3.751-14.563-3.751-21.059 0l-44.856 25.898v-81.694c0-8.305-4.468-16.044-11.661-20.197l-136.13-78.594c-7.192-4.153-16.129-4.152-23.321 0l-28.366 16.377c-3.587 2.071-4.816 6.658-2.745 10.245 2.072 3.588 6.659 4.817 10.245 2.745l28.366-16.377c2.567-1.481 5.756-1.481 8.322 0l136.129 78.594c2.566 1.482 4.161 4.244 4.161 7.207v90.354l-56.798 32.792c-6.495 3.75-10.529 10.737-10.529 18.237v59.482l-72.963 42.125c-2.565 1.481-5.754 1.482-8.322 0l-136.13-78.594c-2.566-1.482-4.161-4.243-4.161-7.207v-157.189c0-2.963 1.595-5.725 4.161-7.207l77.221-44.583c3.587-2.071 4.816-6.658 2.745-10.245-2.071-3.588-6.658-4.816-10.245-2.745l-77.222 44.583c-7.192 4.153-11.66 11.892-11.66 20.197v157.189c0 8.306 4.468 16.044 11.661 20.198z"/><path d="m57.52 115.566c2.077 3.598 6.668 4.811 10.245 2.745l44.405-25.637c3.587-2.071 4.816-6.658 2.745-10.245-2.071-3.588-6.658-4.817-10.245-2.745l-44.405 25.637c-3.588 2.071-4.817 6.657-2.745 10.245z"/></g></svg>