<?xml version="1.0" encoding="iso-8859-1"?>
<!-- Generator: Adobe Illustrator 19.0.0, SVG Export Plug-In . SVG Version: 6.00 Build 0)  -->
<svg version="1.1" id="Capa_1" xmlns="http://www.w3.org/2000/svg" xmlns:xlink="http://www.w3.org/1999/xlink" x="0px" y="0px"
	 viewBox="0 0 512 512" style="enable-background:new 0 0 512 512;" xml:space="preserve">
<g>
	<g>
		<path d="M485.205,11.498c-1.314-5.299-5.378-9.481-10.639-10.943c-5.259-1.463-10.9,0.02-14.76,3.881L170.969,293.272
			l111.395,111.396l129.531-129.531c33.834-33.834,58.493-76.084,71.311-122.183C496.025,106.855,496.716,57.94,485.205,11.498z"/>
	</g>
</g>
<g>
	<g>
		<path d="M149.558,314.681L32.373,431.867c-18.307,18.307-18.307,48.095,0,66.403C41.527,507.423,53.551,512,65.574,512
			c12.023,0,24.048-4.577,33.201-13.73l117.186-117.186L149.558,314.681z"/>
	</g>
</g>
<g>
</g>
<g>
</g>
<g>
</g>
<g>
</g>
<g>
</g>
<g>
</g>
<g>
</g>
<g>
</g>
<g>
</g>
<g>
</g>
<g>
</g>
<g>
</g>
<g>
</g>
<g>
</g>
<g>
</g>
</svg>
