<?xml version="1.0" encoding="iso-8859-1"?>
<!-- Generator: Adobe Illustrator 19.0.0, SVG Export Plug-In . SVG Version: 6.00 Build 0)  -->
<svg version="1.1" id="Capa_1" xmlns="http://www.w3.org/2000/svg" xmlns:xlink="http://www.w3.org/1999/xlink" x="0px" y="0px"
	 viewBox="0 0 512 512" style="enable-background:new 0 0 512 512;" xml:space="preserve">
<g>
	<g>
		<path d="M485.205,11.498c-1.314-5.299-5.378-9.481-10.639-10.943c-5.259-1.463-10.9,0.02-14.76,3.881L32.373,431.867
			c-18.307,18.307-18.307,48.095,0,66.403C41.527,507.423,53.551,512,65.574,512c12.023,0,24.048-4.577,33.201-13.73
			l117.186-117.186l34.288,34.288c2.956,2.956,6.831,4.435,10.704,4.435c3.875,0,7.749-1.478,10.704-4.435l140.238-140.236
			c33.834-33.834,58.493-76.084,71.311-122.183C496.025,106.855,496.716,57.94,485.205,11.498z M77.366,476.86
			c-6.503,6.502-17.082,6.502-23.583,0c-6.502-6.502-6.502-17.081,0-23.584L170.97,336.091l23.584,23.584L77.366,476.86z
			 M390.486,253.727l-129.531,129.53l-68.576-68.576L460.956,46.104C470.77,121.718,444.97,199.242,390.486,253.727z"/>
	</g>
</g>
<g>
</g>
<g>
</g>
<g>
</g>
<g>
</g>
<g>
</g>
<g>
</g>
<g>
</g>
<g>
</g>
<g>
</g>
<g>
</g>
<g>
</g>
<g>
</g>
<g>
</g>
<g>
</g>
<g>
</g>
</svg>
