<svg id="Capa_1" enable-background="new 0 0 511.734 511.734" height="512" viewBox="0 0 511.734 511.734" width="512" xmlns="http://www.w3.org/2000/svg"><g><path d="m447.879 280.332-69.21-269.069c-1.706-6.629-7.683-11.263-14.528-11.263h-216.554c-6.845 0-12.822 4.634-14.527 11.264l-69.204 269.08c-1.155 4.491-.168 9.263 2.673 12.928s7.218 5.809 11.854 5.809l135.052-.004v182.658h-18.226c-8.284 0-15 6.716-15 15s6.716 15 15 15h121.315c8.284 0 15-6.716 15-15s-6.716-15-15-15h-13.226v-182.662l26.343-.001v61.695c0 8.284 6.716 15 15 15s15-6.716 15-15v-61.696l73.71-.002c4.637 0 9.013-2.145 11.854-5.809 2.842-3.664 3.828-8.437 2.674-12.928zm-288.662-250.332h193.294l46.155 179.437h-285.598zm114.082 451.734h-29.864v-182.659l29.864-.001zm-175.57-212.655 7.624-29.642h301.03l7.622 29.633z"/></g></svg>