<svg id="Capa_1" enable-background="new 0 0 512 512" height="512" viewBox="0 0 512 512" width="512" xmlns="http://www.w3.org/2000/svg"><g><path d="m376.246 13.91c-.574-7.843-7.093-13.91-14.956-13.91h-210.553c-7.862 0-14.379 6.065-14.956 13.907l-48.155 195.796h336.739z"/><path d="m445.136 277.482c-1.121-3.225-5.604-17.402-11.789-37.779h-354.7c-6.184 20.387-10.667 34.573-11.786 37.798-3.382 9.748 3.853 19.92 14.171 19.92l145.036-.004v184.583h-30.726c-8.284 0-15 6.716-15 15s6.716 15 15 15h121.315c8.284 0 15-6.716 15-15s-6.716-15-15-15h-30.726v-184.585l43.843-.001v53.62c0 8.284 6.716 15 15 15s15-6.716 15-15v-53.621l71.195-.002c10.322 0 17.556-10.18 14.167-19.929z"/></g></svg>