<?xml version="1.0" encoding="iso-8859-1"?>
<!-- Generator: Adobe Illustrator 19.0.0, SVG Export Plug-In . SVG Version: 6.00 Build 0)  -->
<svg version="1.1" id="Capa_1" xmlns="http://www.w3.org/2000/svg" xmlns:xlink="http://www.w3.org/1999/xlink" x="0px" y="0px"
	 viewBox="0 0 512 512" style="enable-background:new 0 0 512 512;" xml:space="preserve">
<g>
	<g>
		<g>
			<path d="M349.867,162.133h-37.742c6.097-13.956,4.286-30.104-4.751-42.362c-9.037-12.258-23.928-18.764-39.063-17.067
				S240.097,114.044,234,128h-54.8c-14.132,0.015-25.585,11.468-25.6,25.6v341.333c0.012,9.421,7.646,17.054,17.067,17.067h153.6
				c9.421-0.012,17.054-7.646,17.067-17.067v-281.6c0.001-2.264-0.897-4.435-2.498-6.035s-3.772-2.499-6.035-2.498v-25.6h17.067
				c4.713,0,8.533-3.82,8.533-8.533S354.579,162.133,349.867,162.133z M315.733,179.2v25.6H281.6v-25.6H315.733z M273.067,119.467
				c10.132-0.075,19.341,5.876,23.435,15.145c4.094,9.269,2.29,20.084-4.591,27.522H281.6v-17.067
				c-0.012-9.421-7.646-17.054-17.067-17.067h-10.519C258.859,122.571,265.79,119.466,273.067,119.467z M170.667,153.6
				c0.003-4.712,3.822-8.53,8.533-8.533h85.333V204.8h-93.867V153.6z M256,494.933V273.067c0-4.713-3.82-8.533-8.533-8.533
				s-8.533,3.821-8.533,8.533v221.867h-68.267V221.867h153.6l0.017,273.067H256z"/>
			<path d="M238.933,162.133h-42.667c-4.713,0-8.533,3.82-8.533,8.533s3.82,8.533,8.533,8.533h42.667
				c4.713,0,8.533-3.82,8.533-8.533S243.646,162.133,238.933,162.133z"/>
			<path d="M205.083,110.933c18.763,0.209,34.157-14.804,34.417-33.567c0-14.975-22.242-62.992-26.692-72.467
				c-1.409-2.991-4.419-4.9-7.725-4.9c-3.306,0-6.316,1.909-7.725,4.9c-4.45,9.475-26.692,57.492-26.692,72.467
				C170.926,96.129,186.32,111.143,205.083,110.933z M205.083,29.158c7.578,15.366,13.398,31.538,17.35,48.208
				c-0.464,9.244-8.095,16.5-17.35,16.5c-9.255,0-16.885-7.256-17.35-16.5C191.687,60.696,197.507,44.525,205.083,29.158z"/>
		</g>
	</g>
</g>
<g>
</g>
<g>
</g>
<g>
</g>
<g>
</g>
<g>
</g>
<g>
</g>
<g>
</g>
<g>
</g>
<g>
</g>
<g>
</g>
<g>
</g>
<g>
</g>
<g>
</g>
<g>
</g>
<g>
</g>
</svg>
