<?xml version="1.0" encoding="iso-8859-1"?>
<!-- Generator: Adobe Illustrator 19.0.0, SVG Export Plug-In . SVG Version: 6.00 Build 0)  -->
<svg version="1.1" id="Capa_1" xmlns="http://www.w3.org/2000/svg" xmlns:xlink="http://www.w3.org/1999/xlink" x="0px" y="0px"
	 viewBox="0 0 512 512" style="enable-background:new 0 0 512 512;" xml:space="preserve">
<g>
	<g>
		<path d="M340.431,512l-0.019-300.167H171.569V512h75.042V268.115c0-5.178,4.202-9.38,9.38-9.38c5.178,0,9.38,4.202,9.38,9.38V512
			H340.431z"/>
	</g>
</g>
<g>
	<g>
		<path d="M310.799,118.688c-3.086-9.568-11.059-16.744-20.899-18.817s-20.027,1.276-26.715,8.78h11.566
			c10.356,0.009,18.751,8.405,18.76,18.76v18.76h11.331C311.615,138.743,313.885,128.256,310.799,118.688z"/>
	</g>
</g>
<g>
	<g>
		<rect x="293.511" y="164.932" width="37.521" height="28.141"/>
	</g>
</g>
<g>
	<g>
		<path d="M180.949,127.411c-5.178,0-9.38,4.202-9.38,9.38v56.281h103.182v-37.521v-28.141H180.949z M246.61,164.932h-46.901
			c-5.178,0-9.38-4.202-9.38-9.38c0-5.178,4.202-9.38,9.38-9.38h46.901c5.178,0,9.38,4.202,9.38,9.38
			C255.991,160.73,251.798,164.932,246.61,164.932z"/>
	</g>
</g>
<g>
	<g>
		<path d="M209.409,0c-8.33,16.894-14.727,34.669-19.07,52.989c0.507,10.168,8.902,18.141,19.07,18.141
			c10.168,0,18.563-7.983,19.07-18.141C224.135,34.669,217.738,16.894,209.409,0z"/>
	</g>
</g>
<g>
</g>
<g>
</g>
<g>
</g>
<g>
</g>
<g>
</g>
<g>
</g>
<g>
</g>
<g>
</g>
<g>
</g>
<g>
</g>
<g>
</g>
<g>
</g>
<g>
</g>
<g>
</g>
<g>
</g>
</svg>
