<?xml version="1.0" encoding="iso-8859-1"?>
<!-- Generator: Adobe Illustrator 19.0.0, SVG Export Plug-In . SVG Version: 6.00 Build 0)  -->
<svg version="1.1" id="Capa_1" xmlns="http://www.w3.org/2000/svg" xmlns:xlink="http://www.w3.org/1999/xlink" x="0px" y="0px"
	 viewBox="0 0 512 512" style="enable-background:new 0 0 512 512;" xml:space="preserve">
<g>
	<g>
		<path d="M219.14,398.524h-76.588c-4.145,0-7.505,3.36-7.505,7.505s3.36,7.505,7.505,7.505h76.588c4.145,0,7.505-3.36,7.505-7.505
			S223.285,398.524,219.14,398.524z"/>
	</g>
</g>
<g>
	<g>
		<path d="M219.14,431.665h-76.588c-4.145,0-7.505,3.36-7.505,7.505s3.36,7.505,7.505,7.505h76.588c4.145,0,7.505-3.36,7.505-7.505
			S223.285,431.665,219.14,431.665z"/>
	</g>
</g>
<g>
	<g>
		<path d="M219.061,246.68c-24.64-11.873-51.78-11.881-76.423-0.026c-4.749,2.286-7.677,7.166-7.46,12.434l0.535,12.98
			c0.191,4.642,2.732,8.753,6.799,10.996c4.07,2.246,8.908,2.204,12.94-0.113c16.612-9.544,34.172-9.537,50.781,0.02
			c2.053,1.181,4.314,1.773,6.578,1.773c2.182,0,4.367-0.55,6.365-1.652c4.069-2.243,6.613-6.354,6.804-10.998l0.535-12.985
			C226.731,253.844,223.805,248.965,219.061,246.68z M211.104,268.525c-9.815-5.144-20.047-7.716-30.28-7.716
			c-10.216,0-20.435,2.565-30.237,7.693l-0.364-8.83c19.796-9.156,41.451-9.149,61.244,0.022L211.104,268.525z"/>
	</g>
</g>
<g>
	<g>
		<path d="M180.846,301.07c-22.115,0-40.108,17.992-40.108,40.107s17.992,40.108,40.108,40.108
			c22.115,0,40.107-17.992,40.107-40.108C220.953,319.062,202.961,301.07,180.846,301.07z M180.846,366.275
			c-13.839,0-25.098-11.259-25.098-25.098s11.259-25.097,25.098-25.097s25.097,11.259,25.097,25.097
			C205.943,355.016,194.685,366.275,180.846,366.275z"/>
	</g>
</g>
<g>
	<g>
		<path d="M240.904,191.226l-24.596-25.322c-2.557-2.633-4.013-6.06-4.17-9.707c0-0.001,0-0.003,0-0.005
			c0-0.062-0.008-0.122-0.009-0.183c-0.005-0.153-0.022-0.305-0.022-0.459v-45.548v-17.34c3.283-1.828,5.51-5.331,5.51-9.348V61.731
			c0-5.898-4.798-10.696-10.696-10.696h-18.03v-16.94c0-8.16-3.177-15.831-8.947-21.6L169.648,2.198
			c-2.93-2.931-7.682-2.931-10.613,0c-2.931,2.931-2.931,7.682,0,10.613l10.296,10.297c2.935,2.934,4.551,6.835,4.551,10.986v16.94
			H154.77c-5.898,0-10.696,4.798-10.696,10.696v21.583c0,4.012,2.223,7.51,5.498,9.34v17.348v45.559
			c0,0.146-0.017,0.289-0.021,0.435c-0.002,0.066-0.01,0.13-0.01,0.196c0,0.002,0,0.003,0,0.005
			c-0.154,3.651-1.611,7.083-4.173,9.721l-24.596,25.346c-6.089,6.275-9.443,14.546-9.443,23.291v16.45
			c0,4.145,3.36,7.505,7.505,7.505c4.145,0,7.505-3.36,7.505-7.505v-16.45c0-4.82,1.848-9.379,5.205-12.837l24.593-25.343
			c3.504-3.607,5.988-7.955,7.319-12.677h34.771c1.332,4.718,3.815,9.061,7.315,12.665l24.598,25.323
			c3.361,3.459,5.211,8.021,5.211,12.844l-0.003,276.492c0,3.292-2.678,5.969-5.969,5.969h-97.072c-3.291,0-5.969-2.678-5.969-5.969
			V266.476c0-4.145-3.36-7.505-7.505-7.505s-7.505,3.36-7.505,7.505v224.545c0,11.568,9.411,20.979,20.978,20.979h97.072
			c11.568,0,20.978-9.411,20.978-20.979l0.003-276.492C250.359,205.778,247.001,197.502,240.904,191.226z M197.098,148.687h-32.516
			v-31.18h32.516V148.687z M197.098,102.497h-32.516V94.01h32.516V102.497z M202.608,79h-43.524V66.044h43.524V79z"/>
	</g>
</g>
<g>
	<g>
		<path d="M396.989,347.917c-2.578-2.758-6.221-4.34-9.996-4.34h-96.267c-3.775,0-7.419,1.582-9.997,4.341
			c-2.577,2.759-3.909,6.501-3.653,10.267l9.28,136.784c0.649,9.55,8.655,17.031,18.226,17.031h68.554
			c7.478,0,13.983-4.575,16.787-11.127c0.785-1.834,1.297-3.815,1.439-5.904l1.004-14.799c0-0.002,0-0.004,0-0.006l8.276-121.979
			C400.898,354.418,399.566,350.676,396.989,347.917z M376.386,493.953c-0.073,1.078-0.673,2.005-1.536,2.543
			c-0.279,0.174-0.589,0.299-0.915,0.382c-0.258,0.066-0.523,0.113-0.8,0.113h-68.553c-1.707,0-3.135-1.334-3.251-3.038
			l-0.396-5.831h75.846L376.386,493.953z M384.145,379.601h-45.022c-4.145,0-7.505,3.36-7.505,7.505s3.36,7.505,7.505,7.505h44.004
			l-5.326,78.501h-77.883l-5.326-78.501h9.613c4.145,0,7.505-3.36,7.505-7.505s-3.36-7.505-7.505-7.505h-10.631l-1.426-21.014
			h93.424L384.145,379.601z"/>
	</g>
</g>
<g>
</g>
<g>
</g>
<g>
</g>
<g>
</g>
<g>
</g>
<g>
</g>
<g>
</g>
<g>
</g>
<g>
</g>
<g>
</g>
<g>
</g>
<g>
</g>
<g>
</g>
<g>
</g>
<g>
</g>
</svg>
