<?xml version="1.0"?>
<svg xmlns="http://www.w3.org/2000/svg" width="512" height="512" viewBox="0 0 128 128"><g><path d="M124.828,37.792a9.377,9.377,0,1,0-14.216-11.9C101.854,23.294,86.959,20.416,64,20.416s-37.854,2.878-46.612,5.472a9.377,9.377,0,1,0-14.216,11.9C1.067,44.173,0,52.98,0,64S1.067,83.825,3.173,90.208a9.376,9.376,0,1,0,14.215,11.9c8.758,2.594,23.653,5.472,46.612,5.472s37.854-2.878,46.612-5.472a9.377,9.377,0,1,0,14.216-11.9C126.933,83.827,128,75.021,128,64S126.933,44.173,124.828,37.792Zm-3.712-.014C122.66,41.951,124.5,49.888,124.5,64s-1.84,22.049-3.384,26.222a1.749,1.749,0,0,0,.69,2.077,5.876,5.876,0,1,1-8.659,7.069,1.747,1.747,0,0,0-2.157-1.032c-8.291,2.622-23.173,5.748-46.99,5.748s-38.7-3.126-46.99-5.748a1.747,1.747,0,0,0-2.157,1.032A5.876,5.876,0,1,1,6.194,92.3a1.75,1.75,0,0,0,.69-2.076C5.34,86.048,3.5,78.11,3.5,64S5.34,41.951,6.884,37.778a1.751,1.751,0,0,0-.69-2.076,5.876,5.876,0,1,1,8.659-7.07,1.747,1.747,0,0,0,2.157,1.032C25.3,27.042,40.183,23.916,64,23.916s38.7,3.126,46.99,5.748a1.744,1.744,0,0,0,2.157-1.032,5.876,5.876,0,1,1,8.659,7.07A1.748,1.748,0,0,0,121.116,37.778Z"/><path d="M14.447,44.771a1.749,1.749,0,0,0-1.454,2A111.924,111.924,0,0,1,14.16,64a111.906,111.906,0,0,1-1.167,17.225,1.75,1.75,0,0,0,1.454,2,1.855,1.855,0,0,0,.276.022,1.752,1.752,0,0,0,1.727-1.477A115.449,115.449,0,0,0,17.66,64a115.467,115.467,0,0,0-1.21-17.775A1.748,1.748,0,0,0,14.447,44.771Z"/><path d="M113.553,44.771a1.746,1.746,0,0,0-2,1.454A115.467,115.467,0,0,0,110.34,64a115.449,115.449,0,0,0,1.21,17.773,1.752,1.752,0,0,0,1.727,1.477,1.855,1.855,0,0,0,.276-.022,1.75,1.75,0,0,0,1.454-2A111.906,111.906,0,0,1,113.84,64a111.924,111.924,0,0,1,1.167-17.227A1.749,1.749,0,0,0,113.553,44.771Z"/></g></svg>
