<svg id="Layer_1_1_" enable-background="new 0 0 64 64" height="512" viewBox="0 0 64 64" width="512" xmlns="http://www.w3.org/2000/svg"><g><path d="m43 48c-.442 0-.872.046-1.291.124l-6.129-13.652 8.42-29.472-1-3-11 24.5-11-24.5-1 3 8.421 29.472-6.129 13.652c-.42-.078-.85-.124-1.292-.124-3.866 0-7 3.134-7 7s3.134 7 7 7 7-3.134 7-7c0-2.373-1.184-4.467-2.99-5.733l3.094-5.745c.841-1.561 2.254-2.69 3.896-3.205 1.643.515 3.056 1.643 3.896 3.205l3.094 5.745c-1.806 1.266-2.99 3.36-2.99 5.733 0 3.866 3.134 7 7 7s7-3.134 7-7-3.134-7-7-7zm-22 11c-2.209 0-4-1.791-4-4s1.791-4 4-4 4 1.791 4 4-1.791 4-4 4zm12-24v2h-2v-2zm10 24c-2.209 0-4-1.791-4-4s1.791-4 4-4 4 1.791 4 4-1.791 4-4 4z"/></g></svg>