<svg id="Layer_1_1_" enable-background="new 0 0 64 64" height="512" viewBox="0 0 64 64" width="512" xmlns="http://www.w3.org/2000/svg"><g><path d="m16 55c0 2.757 2.243 5 5 5s5-2.243 5-5-2.243-5-5-5-5 2.243-5 5zm8 0c0 1.654-1.346 3-3 3s-3-1.346-3-3 1.346-3 3-3 3 1.346 3 3z"/><path d="m42.314 47.031-5.673-12.636 8.32-29.121c.056-.194.051-.4-.013-.591l-1-3c-.13-.391-.487-.662-.898-.682-.416-.03-.794.213-.962.589l-10.088 22.469-10.088-22.469c-.168-.376-.553-.618-.962-.589-.411.021-.768.292-.898.682l-1 3c-.063.191-.068.397-.013.591l8.32 29.121-5.673 12.635c-.232-.019-.461-.03-.686-.03-4.411 0-8 3.589-8 8s3.589 8 8 8 8-3.589 8-8c0-2.304-1-4.486-2.712-5.997l2.696-5.007c.662-1.23 1.739-2.139 3.001-2.617 1.296.483 2.372 1.391 3.032 2.617l2.696 5.007c-1.713 1.511-2.713 3.693-2.713 5.997 0 4.411 3.589 8 8 8s8-3.589 8-8c0-4.639-3.994-8.391-8.686-7.969zm-21.268-42.008.091-.274 9.767 21.751-2.274 5.065zm12.189 34.015c-2.532.251-4.79 1.74-6.012 4.01l-3.094 5.746c-.241.446-.109 1.002.307 1.293 1.606 1.124 2.564 2.961 2.564 4.913 0 3.309-2.691 6-6 6s-6-2.691-6-6 2.691-6 6-6c.359 0 .721.035 1.108.107.448.085.906-.152 1.095-.573l19.659-43.785.091.274zm9.765 21.962c-3.309 0-6-2.691-6-6 0-1.952.958-3.789 2.564-4.914.416-.291.547-.847.307-1.293l-3.094-5.745c-.51-.947-1.203-1.757-2.027-2.403.092-.107.171-.227.212-.37l.827-2.896 5.008 11.154c.188.42.641.663 1.095.573.387-.071.749-.106 1.108-.106 3.309 0 6 2.691 6 6s-2.691 6-6 6z"/><path d="m31 35h2v2h-2z"/><path d="m43 50c-2.757 0-5 2.243-5 5s2.243 5 5 5 5-2.243 5-5-2.243-5-5-5zm0 8c-1.654 0-3-1.346-3-3s1.346-3 3-3 3 1.346 3 3-1.346 3-3 3z"/></g></svg>