<?xml version="1.0" encoding="iso-8859-1"?>
<!-- Generator: Adobe Illustrator 19.0.0, SVG Export Plug-In . SVG Version: 6.00 Build 0)  -->
<svg version="1.1" id="Capa_1" xmlns="http://www.w3.org/2000/svg" xmlns:xlink="http://www.w3.org/1999/xlink" x="0px" y="0px"
	 viewBox="0 0 496 496" style="enable-background:new 0 0 496 496;" xml:space="preserve">
<g>
	<g>
		<g>
			<path d="M489.352,180.569L489.352,180.569c-4.169-3.003-9.525-3.821-14.4-2.2l-36.248,12.08H57.296l-36.232-12.072
				c-8.382-2.797-17.445,1.731-20.241,10.113c-0.544,1.63-0.821,3.336-0.823,5.055v15.136c-0.01,6.893,4.397,13.018,10.936,15.2
				l42.536,14.176c0.816,0.265,1.67,0.398,2.528,0.392h40h304h40c0.859,0.001,1.713-0.137,2.528-0.408l42.536-14.176
				c6.534-2.18,10.939-8.296,10.936-15.184v-15.136C495.991,188.405,493.519,183.58,489.352,180.569z M480,208.681l-41.296,13.768
				H57.296L16,208.681v-15.128l37.472,12.488c0.815,0.271,1.669,0.409,2.528,0.408h384c0.859,0.001,1.713-0.137,2.528-0.408
				L480,193.521L480,208.681z"/>
			<path d="M56,278.449c0,22.091,17.909,40,40,40s40-17.909,40-40c0-22.091-17.909-40-40-40
				C73.92,238.476,56.026,256.369,56,278.449z M96,254.449c13.255,0,24,10.745,24,24s-10.745,24-24,24s-24-10.745-24-24
				S82.745,254.449,96,254.449z"/>
			<path d="M360,278.449c0,22.091,17.909,40,40,40c22.091,0,40-17.909,40-40c0-22.091-17.909-40-40-40
				C377.92,238.476,360.027,256.369,360,278.449z M400,254.449c13.255,0,24,10.745,24,24s-10.745,24-24,24s-24-10.745-24-24
				S386.745,254.449,400,254.449z"/>
			<circle cx="400" cy="278.449" r="16"/>
			<circle cx="96" cy="278.449" r="16"/>
		</g>
	</g>
</g>
<g>
</g>
<g>
</g>
<g>
</g>
<g>
</g>
<g>
</g>
<g>
</g>
<g>
</g>
<g>
</g>
<g>
</g>
<g>
</g>
<g>
</g>
<g>
</g>
<g>
</g>
<g>
</g>
<g>
</g>
</svg>
