<?xml version="1.0"?>
<svg xmlns="http://www.w3.org/2000/svg" viewBox="0 0 512 512" width="512" height="512"><g id="Solid"><path d="M451.394,361.666a154.041,154.041,0,0,1-22.9,19.179A63.99,63.99,0,0,1,325.812,408.13a43.95,43.95,0,0,1-67.728-.13H170.92A154.64,154.64,0,0,1,60.6,361.649,40.006,40.006,0,0,0,72,440H246.7a8,8,0,0,1,7.225,11.436A20,20,0,0,0,272,480H420a20.022,20.022,0,0,0,18.243-12.261,20.353,20.353,0,0,0,1.395-11.291c-.731-4.382-3.942-8.122-1.471-12.595a8,8,0,0,1,6.15-4.087,39.993,39.993,0,0,0,7.077-78.1Z"/><path d="M317.335,391.93A8,8,0,0,1,323.6,387.4a8.1,8.1,0,0,1,.969-.058,8,8,0,0,1,6.2,2.946,48,48,0,1,0-10.085-38.336,8,8,0,0,1-12.517,5.195A28,28,0,1,0,292,408,28.139,28.139,0,0,0,317.335,391.93ZM368,328v16a16.019,16.019,0,0,0-16,16H336A32.036,32.036,0,0,1,368,328Z"/><path d="M409.887,104.188a154.945,154.945,0,0,1,62.84,57.369c.577.935,1.141,1.883,1.7,2.833a40.015,40.015,0,0,0-29.778-60.113,8,8,0,0,1-6.729-10.285,48,48,0,0,0-89.884-33.248,8,8,0,0,1-12.117,3.193A39.635,39.635,0,0,0,312,56a40.068,40.068,0,0,0-39.195,32H341.08A155.166,155.166,0,0,1,409.887,104.188ZM392,48a31.852,31.852,0,0,1,10.674,1.831l-5.348,15.08a16.006,16.006,0,0,0-19.99,8.687L362.684,67.17A32.027,32.027,0,0,1,392,48Z"/><path d="M459.113,169.963A138.779,138.779,0,0,0,341.08,104H170.92a138.093,138.093,0,0,0-31.664,3.676,139.9,139.9,0,0,0-86.371,62.286C37.6,194.7,32,223.681,32,252.45a139.98,139.98,0,0,0,36.863,94.689c.076.077.152.154.225.234A138.7,138.7,0,0,0,170.92,392h78.757a44.011,44.011,0,0,1,57.9-53.159,64,64,0,0,1,124.369,19.151A139.44,139.44,0,0,0,480,252.45C480,223.51,474.467,194.833,459.113,169.963ZM92.768,195.282A91.463,91.463,0,0,0,79.01,243.548v8.9a91.463,91.463,0,0,0,13.758,48.266l-13.6,8.435a107.452,107.452,0,0,1-16.162-56.7v-8.9a107.6,107.6,0,0,1,23.8-67.472l12.461,10.037A91.877,91.877,0,0,0,92.768,195.282Zm16.581-19.814-10.7-11.9A107.534,107.534,0,0,1,122.8,147.187l7.1,14.335A91.567,91.567,0,0,0,109.349,175.468Z"/></g></svg>
