<svg id="Layer_1" enable-background="new 0 0 512 512" height="512" viewBox="0 0 512 512" width="512" xmlns="http://www.w3.org/2000/svg"><g><path d="m373.908 127.545c-9.177-3.569-18.746-6.285-28.447-8.364 14.053-11.43 38.011-37.889 38.011-80.081v-24.1c0-8.284-6.716-15-15-15h-24.1c-32.634 0-67.924 16.153-88.366 49.667-20.438-33.506-55.719-49.667-88.368-49.667h-24.1c-8.284 0-15 6.716-15 15v24.1c0 42.19 23.956 68.649 38.01 80.081-9.701 2.079-19.27 4.795-28.447 8.364-77.801 30.256-73.83 103.255-73.83 112.388 0 67.925 22.867 138.954 74.756 198.626 37.6 43.241 85.703 73.441 116.977 73.441s79.378-30.2 116.978-73.441c51.937-59.728 74.756-130.757 74.756-198.626 0-10.04 3.552-82.295-73.83-112.388zm-102.904-24.178c0-40.303 32.723-73.367 73.367-73.367h9.1v9.1c0 40.297-32.727 73.367-73.367 73.367h-9.1zm-112.466-64.267v-9.1h9.1c40.628 0 73.367 33.048 73.367 73.367v9.1h-9.1c-40.615 0-73.367-33.047-73.367-73.367zm191.806 379.774c-39.21 45.093-79.4 63.126-94.34 63.126-14.957 0-55.163-18.072-94.339-63.126-46.339-53.292-67.394-116.949-67.394-178.941 0-43.087 17.382-69.914 54.704-84.428 33.527-13.039 76.01-13.039 107.03-13.039s73.502 0 107.03 13.039c37.321 14.514 54.704 41.341 54.704 84.428-.001 62.045-21.102 125.702-67.395 178.941z"/><circle cx="207.804" cy="304.2" r="15"/><circle cx="159.605" cy="223.867" r="15"/><circle cx="256.004" cy="223.867" r="15"/><circle cx="256.004" cy="384.533" r="15"/><circle cx="352.405" cy="223.867" r="15"/><circle cx="304.204" cy="304.2" r="15"/></g></svg>