<svg height="512" viewBox="0 0 56 56" width="512" xmlns="http://www.w3.org/2000/svg"><g id="Page-1" fill="none" fill-rule="evenodd"><g id="036---Tissue-Box" fill="rgb(0,0,0)" fill-rule="nonzero" transform="translate(0 -1)"><path id="Shape" d="m49.847 29.338c-.1927218-.2152787-.4680596-.3382168-.757-.338h-9.22l-.37 2h5.5c.5522847 0 1 .4477153 1 1s-.4477153 1-1 1h-13.99-.01-.027-19.973c-.5522847 0-1-.4477153-1-1s.4477153-1 1-1h4.594l-.466-2h-8.218c-.29061176-.0000573-.56730866.1244563-.76.342l-4.95 5.658h53.6z"/><path id="Shape" d="m37.123 41.99-18.2.01c-.1983287.6135244-.5187591 1.1805705-.942 1.667-.5144867.5780238-1.1867219.9930438-1.934 1.194l-.047 4.214c.6129892.1983803 1.1796352.5184366 1.666.941.5799434.5143418.9970221 1.1868811 1.2 1.935l18.209.049c.1983287-.6135244.5187591-1.1805705.942-1.667.5144867-.5780238 1.1867219-.9930438 1.934-1.194l.049-4.25c-.763949-.2106857-1.4521135-.6345451-1.984-1.222-.4276437-.4794383-.7338973-1.054564-.893-1.677zm-5.123 8.01h-8c-.5522847 0-1-.4477153-1-1s.4477153-1 1-1h8c.5522847 0 1 .4477153 1 1s-.4477153 1-1 1zm2-4h-12c-.5522847 0-1-.4477153-1-1s.4477153-1 1-1h12c.5522847 0 1 .4477153 1 1s-.4477153 1-1 1z"/><path id="Shape" d="m17.647 31h4.225l-1.905-15.88c-.0657219-.5484187.3255813-1.0462781.874-1.112s1.0462781.3255813 1.112.874l1.934 16.118h6.226l.374-3.117c.0657219-.5486949.5638051-.9402219 1.1125-.8745s.9402219.5638051.8745 1.1125l-.346 2.879h5.333l5.239-27.958c.0620325-.33329596-.0490251-.67532364-.2950257-.90860012-.2460007-.23327648-.5934393-.32602969-.9229743-.24639988-2.7676085.73470618-5.6185349 1.10880204-8.482 1.113-2.9831071-.04115694-5.9505581-.4393238-8.839-1.186-1.7330228-.46880135-3.5131395-.7418398-5.307-.814-2.3972811-.04794193-4.7828467.34665781-7.037 1.164-.4678391.17851165-.7315207.67553222-.617 1.163zm15.36-24.119c.0657219-.54841874.5635813-.93972186 1.112-.87399997.5484187.06572188.9397219.56358122.874 1.11199997l-2.04 17c-.0602038.5023211-.4860842.8805476-.992.881-.0401058.0001319-.0801816-.0022059-.12-.007-.2633718-.0315341-.5034249-.1664146-.6673369-.3749618-.1639121-.2085472-.2382525-.4736731-.2066631-.7370382zm-13.126-.874c.2633651-.03158943.528491.04275099.7370382.20666306s.3434277.40396517.3749618.66733694l.481 4c.0315894.2633651-.042751.528491-.2066631.7370382-.163912.2085472-.4039651.3434277-.6673369.3749618-.0401507.0048225-.080561.0071603-.121.007-.5059158-.0004524-.9317962-.3786789-.992-.881l-.48-4c-.0315894-.26336514.042751-.52849104.2066631-.73703821.163912-.20854716.4039651-.34342767.6673369-.37496179z"/><path id="Shape" d="m0 37v19c0 .5522847.44771525 1 1 1h54c.5522847 0 1-.4477153 1-1v-19zm42 12.131c-.0049312.919533-.6341363 1.7180919-1.527 1.938-.6928602.189905-1.2313724.7356635-1.412 1.431-.239734.8962392-1.0583655 1.514541-1.986 1.5h-18.206c-.9198249-.0050457-1.7184808-.6347393-1.938-1.528-.1024923-.3729121-.3109055-.70811-.6-.965-.2385206-.2138414-.5254101-.3665517-.836-.445-.8941961-.2423611-1.5098771-1.0606608-1.495-1.987v-4.206c.0049312-.919533.6341363-1.7180919 1.527-1.938.6928602-.189905 1.2313724-.7356635 1.412-1.431.239734-.8962392 1.0583655-1.514541 1.986-1.5h18.15c.9277699-.0142847 1.7465485.6038169 1.987 1.5.1781984.6969801.716992 1.2445564 1.411 1.434.8917855.2196337 1.5206998 1.016588 1.527 1.935z"/></g></g></svg>