<svg height="512" viewBox="0 0 60 60" width="512" xmlns="http://www.w3.org/2000/svg"><g id="Page-1" fill="none" fill-rule="evenodd"><g id="036---Tissue-Box" fill="rgb(0,0,0)" fill-rule="nonzero" transform="translate(0 -1)"><path id="Shape" d="m59.93 37.651c-.0286394-.065268-.0641747-.1272871-.106-.185-.0201275-.0432616-.0438789-.0847428-.071-.124l-6.4-7.324c-.573648-.647879-1.3976567-1.0185555-2.263-1.018h-8.845l4.721-25.173c.1278074-.68704059-.1122589-1.39096575-.6332248-1.85674896-.520966-.4657832-1.247269-.62586577-1.9157752-.42225104-3.0473255.95822767-6.2225712 1.44781636-9.417 1.452-2.8351568-.04401726-5.6549951-.42536681-8.4-1.136-1.8767211-.50329307-3.8042577-.79312803-5.746-.864-2.9923394-.08079485-5.9654623.50180883-8.706 1.706-.8554613.39975427-1.3127281 1.34518987-1.095 2.264l5.607 24.03h-7.75c-.86594425.0005871-1.69000353.3727429-2.263 1.022l-6.4 7.32c-.02691558.0393863-.05065705.0808503-.071.124-.04182531.0577129-.07736058.119732-.106.185-.02145916.0679577-.03554028.1380281-.042.209-.01287649.0458876-.02223693.0926898-.028.14v20c0 1.6568542 1.34314575 3 3 3h54c1.6568542 0 3-1.3431458 3-3v-20c-.0057631-.0473102-.0151235-.0941124-.028-.14-.0064597-.0709719-.0205408-.1410423-.042-.209zm-39.076-34.651c1.7938605.0721602 3.5739772.34519865 5.307.814 2.8884419.7466762 5.8558929 1.14484306 8.839 1.186 3.3916788-.01019592 6.7625984-.52965463 10-1.541l-5.539 29.541h-5.333l.346-2.879c.0657219-.5486949-.3258051-1.0467781-.8745-1.1125s-1.0467781.3258051-1.1125.8745l-.374 3.117h-6.226l-1.934-16.119c-.0657219-.5484187-.5635813-.9397219-1.112-.874s-.9397219.5635813-.874 1.112l1.905 15.881h-4.225l-6.637-28.489c2.4709923-1.07677268 5.1498302-1.59280074 7.844-1.511zm-12.704 28.342c.19269134-.2175437.46938824-.3420573.76-.342h8.217l.466 2h-4.593c-.5522847 0-1 .4477153-1 1s.4477153 1 1 1h19.974.026.009 13.991c.5522847 0 1-.4477153 1-1s-.4477153-1-1-1h-5.5l.375-2h9.22c.2889404-.0002168.5642782.1227213.757.338l4.948 5.662h-53.6zm49.85 26.658c0 .5522847-.4477153 1-1 1h-54c-.55228475 0-1-.4477153-1-1v-19h56z"/><path id="Shape" d="m17.5 53.062c.3105899.0784483.5974794.2311586.836.445.2890945.25689.4975077.5920879.6.965.2190614.8914646 1.0150439 1.5206737 1.933 1.528h18.206c.9276345.014541 1.746266-.6037608 1.986-1.5.1793797-.6968747.7181144-1.2443848 1.412-1.435.8914265-.2195418 1.5202441-1.0159617 1.527-1.934v-4.262c-.0049312-.919533-.6341363-1.7180919-1.527-1.938-.6932362-.1889135-1.2318617-.7351737-1.411-1.431-.2404515-.8961831-1.0592301-1.5142847-1.987-1.5h-18.15c-.9276345-.014541-1.746266.6037608-1.986 1.5-.1793797.6968747-.7181144 1.2443848-1.412 1.435-.8914265.2195418-1.5202441 1.0159617-1.527 1.934v4.206c-.0142847.9277699.6038169 1.7465485 1.5 1.987zm.552-6.2c.7472781-.2009562 1.4195133-.6159762 1.934-1.194.4222845-.4869858.7416903-1.0543648.939-1.668l18.2-.01c.1591027.622436.4653563 1.1975617.893 1.677.531342.5871343 1.2187721 1.0109686 1.982 1.222l-.049 4.25c-.7472781.2009562-1.4195133.6159762-1.934 1.194-.4232409.4864295-.7436713 1.0534756-.942 1.667l-18.214-.049c-.2029779-.7481189-.6200566-1.4206582-1.2-1.935-.4847453-.4221844-1.0496815-.7422356-1.661-.941z"/><path id="Shape" d="m22.479 14c.040439.0001603.0808493-.0021775.121-.007.2633718-.0315341.5034249-.1664146.6673369-.3749618.1639121-.2085472.2382525-.4736731.2066631-.7370382l-.481-4c-.0425146-.35476473-.2710645-.65989959-.599557-.80046323-.3284926-.14056363-.7070221-.09520109-.993.119-.285978.2142011-.4359576.5646985-.393443.91946323l.48 4c.0602038.5023211.4860842.8805476.992.881z"/><path id="Shape" d="m33.841 26.993c.0398184.0047941.0798942.0071319.12.007.5059158-.0004524.9317962-.3786789.992-.881l2.04-17c.0657219-.54841875-.3255813-1.04627809-.874-1.11199997-.5484187-.06572189-1.0462781.32558123-1.112.87399997l-2.04 17c-.0315894.2633651.042751.528491.2066631.7370382.163912.2085472.4039651.3434277.6673369.3749618z"/><path id="Shape" d="m24 48h12c.5522847 0 1-.4477153 1-1s-.4477153-1-1-1h-12c-.5522847 0-1 .4477153-1 1s.4477153 1 1 1z"/><path id="Shape" d="m34 50h-8c-.5522847 0-1 .4477153-1 1s.4477153 1 1 1h8c.5522847 0 1-.4477153 1-1s-.4477153-1-1-1z"/></g></g></svg>