<?xml version="1.0" encoding="iso-8859-1"?>
<!-- Generator: Adobe Illustrator 19.0.0, SVG Export Plug-In . SVG Version: 6.00 Build 0)  -->
<svg version="1.1" id="Capa_1" xmlns="http://www.w3.org/2000/svg" xmlns:xlink="http://www.w3.org/1999/xlink" x="0px" y="0px"
	 viewBox="0 0 512 512" style="enable-background:new 0 0 512 512;" xml:space="preserve">
<g>
	<g>
		<circle cx="256" cy="256" r="15"/>
	</g>
</g>
<g>
	<g>
		<circle cx="346" cy="346" r="15"/>
	</g>
</g>
<g>
	<g>
		<circle cx="166" cy="346" r="15"/>
	</g>
</g>
<g>
	<g>
		<path d="M451,166c0-41.355-33.645-75-75-75c-13.705,0-26.833,3.664-38.237,10.433c-3.228-24.254,2.003-51.417,20.519-77.821
			C365.244,13.684,358.115,0,346,0H166c-11.971,0-19.109,13.377-12.48,23.32c17.979,26.969,25.601,54.363,23.01,79.595
			C164.587,95.249,150.548,91,136,91c-41.355,0-75,33.645-75,75c0,28.077,15.667,53.309,39.625,66.136
			c-16.993,44.486-17.396,94.591,0.832,140.885c4.428,11.348,38.176,97.842,43.102,110.465C151.378,500.808,167.813,512,186.43,512
			h139.14c18.616,0,35.052-11.192,41.888-28.556c7.205-18.462,37.028-94.882,43.907-112.509
			c17.549-44.57,18.14-94.239,1.278-139.525C435.662,218.46,451,194.129,451,166z M207.013,90h99.718
			c0.049,3.999,0.261,8.004,0.675,12.01c1.758,17.015,6.875,33.677,15.156,48.99H192.494c7.763-14.45,12.446-30.029,14.002-46.083
			C206.974,99.984,207.135,95.006,207.013,90z M319.987,30c-4.582,9.769-7.985,19.807-10.206,30H202.803
			c-2.543-10.018-6.199-20.052-10.977-30H319.987z M91,166c0-24.813,20.187-45,45-45c11.89,0,23.216,4.73,31.568,12.938
			c-4.921,9.944-11.736,19.279-20.487,27.775c-13.407,13.016-24.639,27.604-33.596,43.261C99.841,197.081,91,182.345,91,166z
			 M339.528,472.496c-2.274,5.774-7.753,9.504-13.958,9.504H186.43c-6.205,0-11.684-3.73-13.94-9.461L164.476,452h183.051
			L339.528,472.496z M383.435,359.988L359.234,422H152.77l-23.382-59.927c-2.948-7.487-5.315-15.092-7.125-22.758L166,281l78,104
			c6.002,8.001,18.011,7.984,24,0l78.383-104.51l44.432,55.541C388.98,344.111,386.533,352.12,383.435,359.988z M357.713,246.629
			c-2.897-3.622-7.336-5.714-11.947-5.627c-4.639,0.072-8.982,2.287-11.766,5.998l-78,104l-78-104c-2.833-3.777-7.278-6-12-6
			c-4.722,0-9.167,2.223-12,6l-36.019,48.024c1.445-36.755,14.713-61.129,16.445-65.47c10.48-21.535,21.553-34.097,35.805-48.555
			h174.525c32.828,33.312,48.388,71.358,50.008,111.944L357.713,246.629z M399.978,204.063
			c-8.507-15.164-19.125-29.336-31.765-42.051c-0.074-0.075-0.149-0.149-0.226-0.222c-8.478-8.174-15.839-18.366-21.272-29.948
			C354.802,124.884,365.092,121,376,121c24.813,0,45,20.187,45,45C421,181.61,412.759,195.946,399.978,204.063z"/>
	</g>
</g>
<g>
</g>
<g>
</g>
<g>
</g>
<g>
</g>
<g>
</g>
<g>
</g>
<g>
</g>
<g>
</g>
<g>
</g>
<g>
</g>
<g>
</g>
<g>
</g>
<g>
</g>
<g>
</g>
<g>
</g>
</svg>
