<?xml version="1.0" encoding="iso-8859-1"?>
<!-- Generator: Adobe Illustrator 19.0.0, SVG Export Plug-In . SVG Version: 6.00 Build 0)  -->
<svg version="1.1" id="Capa_1" xmlns="http://www.w3.org/2000/svg" xmlns:xlink="http://www.w3.org/1999/xlink" x="0px" y="0px"
	 viewBox="0 0 512 512" style="enable-background:new 0 0 512 512;" xml:space="preserve">
<g>
	<g>
		<path d="M451,166c0-41.353-33.647-75-75-75c-13.605,0-26.426,3.984-37.771,10.66c-0.456-3.528-1.042-7.018-1.126-10.66H176.798
			c0.125,4.146-0.273,8.19-0.688,12.23C164.206,95.629,150.491,91,136,91c-41.353,0-75,33.647-75,75
			c0,28.184,15.906,53.324,40.021,66.107c-11.933,31.395-15.597,65.57-10.327,99.313l63.309-84.413
			c5.654-7.559,18.34-7.559,23.994,0L256,350.995l78.003-103.989c6.077-8.124,17.827-7.69,23.716-0.381l64.688,80.861
			c4.739-32.6,1.174-65.634-10.126-96.103C435.603,218.332,451,193.433,451,166z M256,271c-8.284,0-15-6.716-15-15
			c0-8.286,6.716-15,15-15s15,6.714,15,15C271,264.284,264.284,271,256,271z M399.39,204.004
			c-4.455-7.927-9.28-15.681-14.896-23.004H129.958c-5.98,7.566-11.102,15.601-15.818,23.828C100.26,197.002,91,182.516,91,166
			c0-24.814,20.186-45,45-45c11.779,0,22.844,4.799,31.166,12.852c-2.963,5.905-6.383,11.677-10.75,17.148h202.057
			c-4.55-5.825-8.247-12.391-11.481-19.254C355.047,124.898,365.184,121,376,121c24.814,0,45,20.186,45,45
			C421,181.765,412.398,195.934,399.39,204.004z"/>
	</g>
</g>
<g>
	<g>
		<path d="M346,0H166c-11.937,0-19.122,13.343-12.48,23.32c8.216,12.323,14.211,25.606,18.157,37.68H340.86
			c3.411-12.008,8.888-25.227,17.415-37.387C365.25,13.689,358.081,0,346,0z"/>
	</g>
</g>
<g>
	<g>
		<path d="M413.425,364.306l-67.044-83.814l-78.384,104.502c-5.654,7.559-18.34,7.559-23.994,0L166,281.005l-65.848,87.794
			c7.385,20.041-11.406-28.072,20.198,52.202h271.3C423.331,340.53,406.654,383.485,413.425,364.306z M166,361
			c-8.284,0-15-6.716-15-15c0-8.286,6.716-15,15-15s15,6.714,15,15C181,354.284,174.284,361,166,361z M346,361
			c-8.284,0-15-6.716-15-15c0-8.286,6.716-15,15-15s15,6.714,15,15C361,354.284,354.284,361,346,361z"/>
	</g>
</g>
<g>
	<g>
		<path d="M132.16,451l12.394,32.479c6.812,17.33,23.262,28.521,41.881,28.521h139.131c18.618,0,35.068-11.191,41.88-28.521
			L379.838,451H132.16z"/>
	</g>
</g>
<g>
</g>
<g>
</g>
<g>
</g>
<g>
</g>
<g>
</g>
<g>
</g>
<g>
</g>
<g>
</g>
<g>
</g>
<g>
</g>
<g>
</g>
<g>
</g>
<g>
</g>
<g>
</g>
<g>
</g>
</svg>
