<?xml version="1.0"?>
<svg xmlns="http://www.w3.org/2000/svg" viewBox="0 0 64 64" width="512" height="512"><g id="outline"><path d="M56.707,6.293a1,1,0,0,0-1.414,0L44,17.586,42.414,16H44a1,1,0,0,0,1-1V11a1,1,0,0,0-1-1H40a1,1,0,0,0-.707.293L39,10.586,36.707,8.293a1,1,0,0,0-1.414,0L35,8.586,28.707,2.293a1,1,0,0,0-1.414,0l-3,3a1,1,0,0,0,0,1.414L30.586,13l-.293.293a1,1,0,0,0,0,1.414L32.586,17H29a1,1,0,0,0-.948.684l-4,12a1,1,0,0,0,.053.763l1,2A1,1,0,0,0,26,33h3a1,1,0,0,0,.958-.713L32.744,23H35a1,1,0,0,0,.707-.293L37,21.414l.586.586H37a1,1,0,0,0-1,1v3a2.965,2.965,0,0,0,.415,1.5,3.17,3.17,0,0,0-1.4,2.427l-2,26.013a5.524,5.524,0,0,0,1.47,4.181A6.2,6.2,0,0,0,39.011,62H50.989a6.2,6.2,0,0,0,4.528-1.883,5.531,5.531,0,0,0,1.469-4.194l-2-25.983a3.189,3.189,0,0,0-1.4-2.443A2.969,2.969,0,0,0,54,26V23a1,1,0,0,0-1-1h-.586l9.293-9.293a1,1,0,0,0,0-1.414ZM43.293,19.707a1,1,0,0,0,1.414,0L47,17.414,50.586,21l-1.293,1.293A1,1,0,0,0,50,24h2v2a1,1,0,0,1-1,1H39a1,1,0,0,1-1-1V24h5V22H40.414l-2-2L41,17.414ZM26.414,6,28,4.414,33.586,10,32,11.586Zm6,8L36,10.414,37.586,12,34,15.586Zm2.172,7H32a1,1,0,0,0-.958.713L28.256,31H26.618l-.538-1.077L29.721,19H33a1,1,0,0,0,.707-.293L40.414,12H43v2H42a1,1,0,0,0-.707.293Zm18.406,9.077,2,25.987a3.5,3.5,0,0,1-.933,2.686A4.2,4.2,0,0,1,50.989,60H39.011a4.2,4.2,0,0,1-3.069-1.25,3.489,3.489,0,0,1-.934-2.673l2-26.017a1.125,1.125,0,0,1,1-1.06H51.989A1.13,1.13,0,0,1,52.992,30.077ZM52,19.586,48.414,16,56,8.414,57.086,9.5l-5.793,5.793,1.414,1.414L58.5,10.914,59.586,12Z"/><rect x="45" y="22" width="2" height="2"/><path d="M50.883,56H48v2h4a1,1,0,0,0,.994-1.11l-1-9-1.988.22Z"/><rect x="44" y="56" width="2" height="2"/><path d="M27,43V41a3,3,0,0,0-3-3h-.556A3.959,3.959,0,0,0,24,36V35a5.006,5.006,0,0,0-5-5H18a1,1,0,0,0-1,1v1a1,1,0,0,1-1,1H11a3,3,0,0,0-3,3v1a2.966,2.966,0,0,0,.184,1H8a3,3,0,0,0-3,3v2a3,3,0,0,0-3,3v3c0,.02,0,.092.006.11l1.008,9.054A4.748,4.748,0,0,0,8,62H24a4.757,4.757,0,0,0,4.994-3.89l1-9c0-.018.006-.09.006-.11V46A3,3,0,0,0,27,43ZM10,36a1,1,0,0,1,1-1h5a3,3,0,0,0,3-3,3,3,0,0,1,3,3v1a2,2,0,0,1-2,2H11a1,1,0,0,1-1-1ZM7,41a1,1,0,0,1,1-1H24a1,1,0,0,1,1,1v2H7ZM27.014,57.836A2.818,2.818,0,0,1,24,60H8a2.813,2.813,0,0,1-3.006-2.11L4.117,50H27.883ZM28,48H4V46a1,1,0,0,1,1-1H27a1,1,0,0,1,1,1Z"/><rect x="6" y="52" width="2" height="2"/><rect x="10" y="52" width="2" height="2"/></g></svg>
